# AST/ASF file generated using VICON BodyLanguage
# -----------------------------------------------
:version 1.10
:name VICON
:units
  mass 1.0
  length 0.45
  angle deg
:documentation
   .ast/.asf automatically generated from VICON data using
   VICON BodyBuilder and BodyLanguage model FoxedUp or BRILLIANT.MOD
:root
   order TX TY TZ RX RY RZ
   axis XYZ
   position 0 0 0  
   orientation 0 0 0 
:bonedata
  begin
     id 1 
     name lhipjoint
     direction 0.588788 -0.725889 0.355548 
     length 2.37778 
     axis 0 0 0  XYZ
  end
  begin
     id 2 
     name lfemur
     direction 0.34202 -0.939693 0  
     length 6.86393  
     axis 0 0 20  XYZ
    dof rx ry rz
    limits (-160.0 20.0)
           (-70.0 70.0)
           (-60.0 70.0)
  end
  begin
     id 3 
     name ltibia
     direction 0.34202 -0.939693 0   
     length 7.32851   
     axis 0 0 20   XYZ
    dof rx
    limits (-10.0 170.0)
  end
  begin
     id 4 
     name lfoot
     direction 0.0626533 -0.172138 0.983078   
     length 1.98929   
     axis -90 7.62852e-016 20   XYZ
    dof rx rz
    limits (-45.0 90.0)
           (-70.0 20.0)
  end
  begin
     id 5 
     name ltoes
     direction 1.53647e-011 -4.21734e-011 1   
     length 1.00479   
     axis -90 7.62852e-016 20   XYZ
    dof rx
    limits (-90.0 20.0)
  end
  begin
     id 6 
     name rhipjoint
     direction -0.59141 -0.724168 0.354705   
     length 2.38343  
     axis 0 0 0  XYZ 
  end
  begin
     id 7 
     name rfemur
     direction -0.34202 -0.939693 0   
     length 6.95589   
     axis 0 0 -20   XYZ
    dof rx ry rz
    limits (-160.0 20.0)
           (-70.0 70.0)
           (-70.0 60.0)
  end
  begin
     id 8 
     name rtibia
     direction -0.34202 -0.939693 0   
     length 7.32327   
     axis 0 0 -20   XYZ
    dof rx
    limits (-10.0 170.0)
 end
 begin
     id 9 
     name rfoot
     direction -0.0660461 -0.18146 0.981178   
     length 1.85272  
     axis -90 -7.62852e-016 -20   XYZ
    dof rx rz
    limits (-45.0 90.0)
           (-20.0 70.0)
  end
  begin
     id 10 
     name rtoes
     direction -1.53586e-011 -4.21988e-011 1   
     length 0.93746   
     axis -90 -7.62852e-016 -20   XYZ
    dof rx
    limits (-90.0 20.0)
  end
  begin
     id 11 
     name lowerback
     direction -0.0107982 0.991059 0.13299   
     length 1.98691   
     axis 0 0 0   XYZ
    dof rx ry rz
    limits (-20.0 45.0)
           (-30.0 30.0)
           (-30.0 30.0)
  end
  begin
     id 12 
     name upperback
     direction 0.0076296 0.999916 0.0104576   
     length 1.99501   
     axis 0 0 0   XYZ
    dof rx ry rz
    limits (-20.0 45.0)
           (-30.0 30.0)
           (-30.0 30.0)
  end
  begin
     id 13 
     name thorax
     direction 0.01176 0.998615 -0.0512909   
     length 2.03144   
     axis 0 0 0   XYZ
    dof rx ry rz
    limits (-20.0 45.0)
           (-30.0 30.0)
           (-30.0 30.0)
  end
  begin
     id 14 
     name lowerneck
     direction -0.0171909 0.999644 0.0204011   
     length 1.71818   
     axis 0 0 0   XYZ
    dof rx ry rz
    limits (-20.0 45.0)
           (-30.0 30.0)
           (-30.0 30.0)
  end
  begin
     id 15 
     name upperneck
     direction 0.0250902 0.997482 -0.0663316   
     length 1.66199   
     axis 0 0 0   XYZ
    dof rx ry rz
    limits (-20.0 45.0)
           (-30.0 30.0)
           (-30.0 30.0)
  end
  begin
     id 16
     name head
     direction 0.00881535 0.99956 -0.0283365  
     length 1.81545  
     axis 0 0 0   XYZ
    dof rx ry rz
    limits (-20.0 45.0)
           (-30.0 30.0)
           (-30.0 30.0)
  end
  begin
     id 17 
     name lclavicle
     direction 0.840411 0.486876 -0.238035  
     length 3.30409  
     axis 0 0 0   XYZ
    dof ry rz
    limits (-20.0 10.0)
           (0.0 20.0)
  end
  begin
     id 18 
     name lhumerus
     direction 1 -4.48977e-011 -5.16239e-027   
     length 4.62672   
     axis 180 -30 -90   XYZ
    dof rx ry rz
    limits (-60.0 90.0)
           (-90.0 90.0)
           (-90.0 90.0)
  end
  begin
     id 19
     name lradius
     direction 1 -4.48977e-011 -8.71171e-027   
     length 3.11018   
     axis 180 -30 -90   XYZ
    dof rx
    limits (-10.0 170.0)
  end
  begin
     id 20
     name lwrist
     direction 1 -4.48912e-011 -1.03764e-026   
     length 1.55509   
     axis 9.09556e-015 90 90   XYZ
    dof ry
    limits (-180.0 0.0)
 end
  begin
     id 21 
     name lhand
     direction 1 -4.49072e-011 -2.07528e-026   
     length 0.743834   
     axis 1.3242e-014 90 90   XYZ
    dof rx rz
    limits (-90.0 90.0)
           (-45.0 45.0)
  end
  begin
     id 22 
     name lfingers
     direction 1 -4.48909e-011 -4.15056e-026   
     length 0.599698   
     axis 2.64841e-014 90 90   XYZ
    dof rx
    limits (0.0 90.0)
  end
  begin
     id 23
     name lthumb
     direction 0.707107 -6.35013e-011 0.707107   
     length 0.86105   
     axis -90 45 2.85299e-015   XYZ
    dof rx rz
    limits (-45.0 45.0)
           (-45.0 45.0)
  end
  begin
     id 24 
     name rclavicle
     direction -0.835208 0.500237 -0.228452   
     length 3.2716  
     axis 0 0 0   XYZ 
    dof ry rz
    limits (-10.0 20.0)
           (-20.0 0.0)
  end
  begin
     id 25 
     name rhumerus
     direction -1 -4.48978e-011 -5.1953e-028  
     length 4.55919   
     axis 180 30 90   XYZ
    dof rx ry rz
    limits (-90.0 60.0)
           (-90.0 90.0)
           (-90.0 90.0)
  end
  begin
     id 26 
     name rradius
     direction -1 -4.48961e-011 -5.99546e-027   
     length 3.22748   
     axis 180 30 90   XYZ
    dof rx
    limits (-10.0 170.0)
  end
  begin
     id 27 
     name rwrist
     direction -1 -4.48986e-011 -1.03764e-026   
     length 1.61374   
     axis 9.09556e-015 -90 -90   XYZ
    dof ry
    limits (-180.0 0.0)
  end
  begin
     id 28
     name rhand
     direction -1 -4.4899e-011 -2.07528e-026   
     length 0.700882   
     axis 1.3242e-014 -90 -90   XYZ
    dof rx rz
    limits (-90.0 90.0)
           (-45.0 45.0)
  end
  begin
     id 29
     name rfingers
     direction -1 -4.48991e-011 -4.15056e-026   
     length 0.565069   
     axis 2.64841e-014 -90 -90   XYZ
    dof rx
    limits (0.0 90.0)
  end
  begin
     id 30
     name rthumb
     direction -0.707107 -6.34804e-011 0.707107   
     length 0.811329   
     axis -90 -45 -2.85299e-015   XYZ
    dof rx rz
    limits (-45.0 45.0)
           (-45.0 45.0)
  end
:hierarchy
  begin
    root lhipjoint rhipjoint lowerback
    lhipjoint lfemur
    lfemur ltibia
    ltibia lfoot
    lfoot ltoes
    rhipjoint rfemur
    rfemur rtibia
    rtibia rfoot
    rfoot rtoes
    lowerback upperback
    upperback thorax
    thorax lowerneck lclavicle rclavicle
    lowerneck upperneck
    upperneck head
    lclavicle lhumerus
    lhumerus lradius
    lradius lwrist
    lwrist lhand lthumb
    lhand lfingers
    rclavicle rhumerus
    rhumerus rradius
    rradius rwrist
    rwrist rhand rthumb
    rhand rfingers
  end

#!OML:ASF F:\VICON\USERDATA\INSTALL\SteveWalk\SteveWalk.ASF
:FULLY-SPECIFIED
:DEGREES
80
root -0.661786 16.3061 -29.3527 16.5748 3.072 3.18364
lowerback -13.7411 -2.0792 -5.01454
upperback -4.65699 -2.07546 -0.069796
thorax 2.95489 -1.01458 2.42067
lowerneck -3.60518 -1.38976 -0.0233129
upperneck 7.92001 -1.96588 1.27422
head 3.18052 -0.929506 0.341048
rclavicle -9.31648e-015 -2.7395e-014
rhumerus -75.7031 -38.6817 -27.1012
rradius 11.3586
rwrist 47.7284
rhand -11.8214 -35.5704
rfingers 7.12502
rthumb 14.2291 -65.0629
lclavicle -9.31648e-015 -2.7395e-014
lhumerus -22.8976 -8.02881 84.1885
lradius 33.9277
lwrist 0.398694
lhand -18.1083 -16.9292
lfingers 7.12502
lthumb 8.16578 12.893
rfemur -49.1527 -5.32052 21.7094
rtibia 36.8384
rfoot -12.2904 -5.38271
rtoes -13.1203
lfemur -14.6003 5.18441 -26.0012
ltibia 27.4798
lfoot -25.6163 -10.8061
ltoes -3.09511
81
root -0.664326 16.2988 -29.14 16.5726 3.48908 3.43446
lowerback -13.6162 -2.12758 -5.1425
upperback -4.75806 -2.12779 -0.183783
thorax 2.78488 -1.03478 2.36974
lowerneck -3.14932 -1.47154 0.156306
upperneck 7.65818 -2.08441 1.3214
head 3.00368 -0.984833 0.324529
rclavicle 1.2895e-014 -1.18681e-014
rhumerus -76.5784 -38.1442 -26.5749
rradius 11.5636
rwrist 47.2911
rhand -11.2662 -35.5283
rfingers 7.12502
rthumb 14.764 -64.9825
lclavicle 1.2895e-014 -1.18681e-014
lhumerus -22.691 -9.32361 84.2355
lradius 35.139
lwrist 1.02303
lhand -18.2152 -17.2106
lfingers 7.12502
lthumb 8.06261 12.6156
rfemur -48.8951 -5.53464 21.4932
rtibia 33.1529
rfoot -12.9075 -4.61875
rtoes -10.7592
lfemur -13.1963 5.68717 -26.0282
ltibia 26.4026
lfoot -25.3494 -12.0569
ltoes -1.80087
82
root -0.662269 16.2972 -28.9273 16.5617 4.11979 3.52105
lowerback -13.2525 -2.23545 -4.97772
upperback -5.00957 -2.31928 -0.216652
thorax 2.33282 -1.11688 2.22737
lowerneck -2.49761 -1.53955 0.172621
upperneck 7.36949 -2.17027 1.35431
head 2.78437 -1.03064 0.335008
rclavicle 7.34142e-015 1.0666e-014
rhumerus -76.9757 -37.1265 -26.8083
rradius 11.6289
rwrist 46.5598
rhand -11.6782 -34.5199
rfingers 7.12502
rthumb 14.3671 -64.0027
lclavicle 7.34142e-015 1.0666e-014
lhumerus -22.557 -10.3007 84.2945
lradius 36.1622
lwrist 1.69032
lhand -18.1461 -17.6113
lfingers 7.12502
lthumb 8.12933 12.2123
rfemur -48.5767 -5.7625 21.3393
rtibia 29.6536
rfoot -12.2679 -4.01355
rtoes -13.8093
lfemur -11.7528 5.80535 -25.8267
ltibia 25.1896
lfoot -24.8516 -12.8164
ltoes -1.45763
83
root -0.66848 16.2942 -28.7164 16.6282 4.62929 3.61702
lowerback -14.3677 -2.46269 -5.10296
upperback -4.46859 -2.52067 -0.119737
thorax 3.52762 -1.24914 2.3186
lowerneck -1.84072 -1.53084 0.0312986
upperneck 6.45921 -2.1408 1.45584
head 2.36214 -1.02519 0.399494
rclavicle -1.93462e-014 -1.52816e-014
rhumerus -76.2889 -36.9735 -27.861
rradius 11.6033
rwrist 45.373
rhand -11.934 -33.5289
rfingers 7.12502
rthumb 14.1206 -63.0291
lclavicle -1.93462e-014 -1.52816e-014
lhumerus -21.3292 -10.7951 84.1662
lradius 37.0353
lwrist 2.36513
lhand -18.0705 -17.9474
lfingers 7.12502
lthumb 8.20226 11.8734
rfemur -48.2759 -5.6733 21.0209
rtibia 26.2976
rfoot -11.9713 -3.32296
rtoes -12.8876
lfemur -10.3779 5.8709 -25.637
ltibia 23.92
lfoot -24.5791 -13.0498
ltoes -3.03549
84
root -0.676366 16.2861 -28.5004 16.7176 5.12101 3.76284
lowerback -14.0779 -2.63446 -5.26555
upperback -4.4919 -2.7482 -0.0111039
thorax 3.37657 -1.35814 2.49417
lowerneck -2.70436 -1.54705 0.0177817
upperneck 6.99877 -2.16065 1.25483
head 2.69848 -1.03443 0.329474
rclavicle 1.36175e-014 -6.90777e-015
rhumerus -76.6342 -36.84 -27.2774
rradius 11.434
rwrist 45.485
rhand -12.0447 -33.3582
rfingers 7.12502
rthumb 14.0139 -62.8658
lclavicle 1.36175e-014 -6.90777e-015
lhumerus -20.7907 -11.0725 84.1709
lradius 38.1091
lwrist 2.89377
lhand -18.2277 -17.6759
lfingers 7.12502
lthumb 8.05056 12.1508
rfemur -48.1697 -5.88386 20.9068
rtibia 23.252
rfoot -11.8219 -2.34479
rtoes -12.918
lfemur -8.99468 5.92351 -25.4786
ltibia 22.676
lfoot -24.4503 -13.331
ltoes -4.69189
85
root -0.676894 16.2672 -28.2821 16.7906 5.60901 4.01416
lowerback -14.0535 -2.73045 -5.37696
upperback -4.52552 -2.85924 -0.0567282
thorax 3.33958 -1.4114 2.49099
lowerneck -2.69028 -1.64452 0.274125
upperneck 6.88604 -2.27895 0.906014
head 2.65014 -1.0982 0.170971
rclavicle 1.16351e-014 1.38155e-014
rhumerus -77.8604 -36.9115 -25.6534
rradius 11.2985
rwrist 46.494
rhand -12.2484 -33.5297
rfingers 7.12502
rthumb 13.8177 -63.0508
lclavicle 1.16351e-014 1.38155e-014
lhumerus -20.4767 -11.2931 84.1896
lradius 39.1829
lwrist 3.09111
lhand -18.4561 -17.4759
lfingers 7.12502
lthumb 7.8301 12.3591
rfemur -48.5306 -6.88166 21.3115
rtibia 20.6759
rfoot -11.4544 -0.692838
rtoes -16.0613
lfemur -7.55207 5.55252 -25.461
ltibia 21.4621
lfoot -24.0896 -13.3743
ltoes -5.83536
86
root -0.682268 16.2501 -28.0713 16.8937 5.9702 4.31689
lowerback -14.0634 -2.8465 -5.61324
upperback -4.57004 -2.97917 -0.0723318
thorax 3.31752 -1.46898 2.58681
lowerneck -2.38177 -1.63873 0.317269
upperneck 6.48665 -2.26076 0.815234
head 2.45787 -1.09389 0.139943
rclavicle -1.30608e-014 6.4605e-015
rhumerus -77.7562 -36.3086 -26.3149
rradius 11.2627
rwrist 45.0044
rhand -13.6503 -32.6707
rfingers 7.12502
rthumb 12.4663 -62.2789
lclavicle -1.30608e-014 6.4605e-015
lhumerus -20.0486 -11.4823 84.1869
lradius 39.9037
lwrist 3.29324
lhand -18.7016 -17.849
lfingers 7.12502
lthumb 7.59321 11.9947
rfemur -48.625 -7.77744 21.5976
rtibia 18.539
rfoot -11.3592 1.62005
rtoes -11.1458
lfemur -6.27634 5.04789 -25.5426
ltibia 20.44
lfoot -23.6725 -13.0533
ltoes -7.69608
